<svg width="46" height="35" viewBox="0 0 46 35" fill="none" xmlns="http://www.w3.org/2000/svg">
<rect x="1.2063" y="1.25659" width="44" height="33" rx="14.5" stroke="white" stroke-opacity="0.2"/>
<path fill-rule="evenodd" clip-rule="evenodd" d="M28.4491 11.8957C28.448 11.1944 27.9785 10.7566 27.3997 10.7566H13.7711C13.1928 11.1685 12.7162 11.1792 12.7064 11.9211C12.6972 12.5721 13.1586 12.7063 13.7368 12.715C13.7482 12.715 13.7596 12.715 13.7711 12.715H27.3997C27.9785 12.715 28.448 12.7297 28.4491 11.8957ZM13.7711 16.6312H32.6413C33.3222 16.622 33.6961 17.0533 33.7054 17.5939C33.7151 18.1349 33.6646 18.5804 32.7679 18.5891C32.6636 18.5891 32.6527 18.5891 32.6413 18.5891H13.7711C13.1928 18.5977 12.7162 18.1665 12.7064 17.6259C12.6972 17.0853 13.1586 16.6398 13.7368 16.6312C13.7482 16.6307 13.7596 16.6307 13.7711 16.6312ZM13.7711 22.5053H23.2048C23.783 22.5053 24.252 23.2818 24.2526 23.4842C24.2526 24.0248 23.7841 24.7515 23.2054 24.7566H13.7711C13.1928 24.7566 12.7238 24.0253 12.7233 23.4847C12.7233 23.292 13.1923 22.5058 13.7711 22.5053Z" fill="#F9F9F9"/>
</svg>
