<svg width="46" height="35" viewBox="0 0 46 35" fill="none" xmlns="http://www.w3.org/2000/svg">
<rect x="0.912354" y="1.25647" width="44" height="33" rx="14.5" stroke="white" stroke-opacity="0.2"/>
<path fill-rule="evenodd" clip-rule="evenodd" d="M28.1552 11.8956C28.1541 11.1943 27.6845 10.7565 27.1058 10.7565H13.4771C12.8989 11.1684 12.4223 11.1791 12.4125 11.921C12.4033 12.5719 12.8646 12.7062 13.4429 12.7148C13.4543 12.7148 13.4657 12.7148 13.4771 12.7148H27.1058C27.6845 12.7148 28.1541 12.7296 28.1552 11.8956ZM13.4771 16.6311H32.3473C33.0283 16.6219 33.4022 17.0532 33.4114 17.5937C33.4212 18.1348 33.3707 18.5803 32.474 18.5889C32.3696 18.5889 32.3587 18.5889 32.3473 18.5889H13.4771C12.8989 18.5976 12.4223 18.1664 12.4125 17.6258C12.4033 17.0852 12.8646 16.6397 13.4429 16.6311C13.4543 16.6306 13.4657 16.6306 13.4771 16.6311ZM13.4771 22.5052H22.9109C23.4891 22.5052 23.9581 23.2817 23.9586 23.4841C23.9586 24.0247 23.4902 24.7514 22.9114 24.7565H13.4771C12.8989 24.7565 12.4299 24.0252 12.4293 23.4846C12.4293 23.2919 12.8983 22.5057 13.4771 22.5052Z" fill="#F9F9F9"/>
</svg>
