<svg width="45" height="34" viewBox="0 0 45 34" fill="none" xmlns="http://www.w3.org/2000/svg">
<rect x="0.5" y="0.5" width="44" height="32.9997" rx="14.5" stroke="white" stroke-opacity="0.2"/>
<path d="M23.7826 17L29.2339 11.5485C29.5887 11.1939 29.5887 10.6205 29.2339 10.2659C28.8793 9.91135 28.306 9.91135 27.9514 10.2659L22.4999 15.7174L17.0486 10.2659C16.6938 9.91135 16.1207 9.91135 15.7661 10.2659C15.4113 10.6205 15.4113 11.1939 15.7661 11.5485L21.2174 17L15.7661 22.4515C15.4113 22.806 15.4113 23.3794 15.7661 23.734C15.9428 23.9109 16.1751 23.9997 16.4073 23.9997C16.6395 23.9997 16.8717 23.9109 17.0486 23.734L22.4999 18.2825L27.9514 23.734C28.1283 23.9109 28.3605 23.9997 28.5927 23.9997C28.8249 23.9997 29.0571 23.9109 29.2339 23.734C29.5887 23.3794 29.5887 22.806 29.2339 22.4515L23.7826 17Z" fill="white"/>
</svg>
