<svg width="42" height="41" viewBox="0 0 42 41" fill="none" xmlns="http://www.w3.org/2000/svg">
<rect x="0.5" y="0.5" width="40.5345" height="39.2301" rx="15.5" stroke="#F6BA5B" stroke-opacity="0.23"/>
<path opacity="0.988" fill-rule="evenodd" clip-rule="evenodd" d="M20.7675 27.23C14.371 27.23 13 25.974 13 20.115C13 18.5045 13.1035 17.242 13.3865 16.258C14.111 16.9835 15.025 17.856 16.0185 18.6335C17.427 19.7365 19.1325 20.762 20.7675 20.762C22.402 20.762 24.1075 19.7365 25.516 18.6335C26.509 17.856 27.4235 16.9835 28.148 16.258C28.431 17.242 28.5345 18.5045 28.5345 20.115C28.5345 25.974 27.1635 27.23 20.7675 27.23ZM24.7175 17.6155C23.636 18.702 21.929 19.468 20.7675 19.468C19.6055 19.468 18.2045 18.702 17.001 17.6155C15.715 16.753 14.709 15.76 13.9505 14.9875C14.9785 13.4355 17.0025 13 20.7675 13C24.532 13 26.556 13.4355 27.584 14.9875C27.091 15.76 26.031 16.753 24.7175 17.6155Z" fill="#FF9C01"/>
<path opacity="0.988" fill-rule="evenodd" clip-rule="evenodd" d="M20.7675 27.2301C14.371 27.2301 13 25.9741 13 20.1151C13 18.5046 13.1035 17.2421 13.3865 16.2581C14.111 16.9836 15.025 17.8561 16.0185 18.6336C17.427 19.7366 19.1325 20.7621 20.7675 20.7621C22.402 20.7621 24.1075 19.7366 25.516 18.6336C26.509 17.8561 27.4235 16.9836 28.148 16.2581C28.431 17.2421 28.5345 18.5046 28.5345 20.1151C28.5345 25.9741 27.1635 27.2301 20.7675 27.2301Z" fill="#F6BA5B"/>
</svg>
