<?xml version="1.0" encoding="UTF-8"?>
<svg id="_Слой_2" data-name="Слой 2" xmlns="http://www.w3.org/2000/svg" viewBox="0 0 78.91 74.51">
  <defs>
    <style>
      .cls-1 {
        fill-rule: evenodd;
        isolation: isolate;
        opacity: .3;
      }

      .cls-2 {
        fill: none;
        stroke: #a5a5a5;
      }
    </style>
  </defs>
  <g id="_Слой_1-2" data-name="Слой 1">
    <g>
      <path class="cls-1" d="M59.47,37.17c0-11.51-9.07-20.84-20.25-20.84s-20.25,9.33-20.25,20.84c0,10.4,7.4,19.02,17.08,20.59v-14.56h-5.14v-6.02h5.14v-4.59c0-5.22,3.02-8.11,7.65-8.11,2.22,0,4.53,.41,4.53,.41v5.13h-2.55c-2.51,0-3.3,1.61-3.3,3.26v3.91h5.62l-.9,6.02h-4.72v14.56c9.68-1.56,17.08-10.19,17.08-20.59Z"/>
      <path class="cls-2" d="M31.39,.5h16.13c17.06,0,30.89,13.83,30.89,30.89v11.72c0,17.06-13.83,30.89-30.89,30.89H31.39C14.33,74.01,.5,60.18,.5,43.11v-11.72C.5,14.33,14.33,.5,31.39,.5Z"/>
    </g>
  </g>
</svg>