<svg width="19" height="18" viewBox="0 0 19 18" fill="none" xmlns="http://www.w3.org/2000/svg">
<g clip-path="url(#clip0_133_257)">
<path fill-rule="evenodd" clip-rule="evenodd" d="M18.2833 3.22758C18.5339 1.72528 16.936 0.53866 15.4333 0.378045C11.6749 0.226199 7.88433 0.226199 4.12556 0.378045C2.62141 0.536814 1.43249 1.72389 1.27141 3.22758C0.870793 6.98543 0.870793 10.776 1.27141 14.5339C1.43018 16.038 2.61772 17.2274 4.12141 17.3876C7.88018 17.7887 11.6708 17.7887 15.4296 17.3876C16.9337 17.2293 18.5339 16.0417 18.2833 14.538C18.6848 10.7788 18.6848 6.98728 18.2833 3.22758ZM12.8293 7.84158L12.3903 9.37389C12.3756 9.51927 12.2542 9.63004 12.3908 9.63143H10.5068L10.4989 14.1785C10.4999 14.2911 10.4108 14.383 10.2986 14.3862H8.67679C8.56602 14.3862 8.47649 14.2967 8.47649 14.1859C8.47649 14.1831 8.47649 14.1804 8.47649 14.178V9.63143H7.27556C7.11725 9.62958 6.98987 9.49943 6.99172 9.34112L6.98572 7.80743C6.98341 7.6482 7.11033 7.51712 7.26956 7.51481H8.47649V6.34158C8.47649 4.31543 9.49741 3.37943 10.9942 3.37943H12.2214C12.3802 3.38174 12.508 3.51143 12.5062 3.67112V4.96343C12.5085 5.53389 12.3816 5.25328 12.2223 5.25558C12.2219 5.25558 12.2214 5.25558 12.2214 5.25558H11.4686C10.6549 5.25558 10.4971 5.6562 10.4971 6.23358V7.51481H12.2851C12.4448 7.51758 12.8754 7.64912 12.8523 7.80881C12.8477 7.81943 12.8431 7.83051 12.8293 7.84158Z" fill="white"/>
</g>
<defs>
<clipPath id="clip0_133_257">
<rect width="18.4615" height="18" fill="white" transform="translate(0.538452)"/>
</clipPath>
</defs>
</svg>
