<svg width="18" height="18" viewBox="0 0 18 18" fill="none" xmlns="http://www.w3.org/2000/svg">
<g clip-path="url(#clip0_21_1600)">
<path fill-rule="evenodd" clip-rule="evenodd" d="M8.97701 0.361574C13.855 0.374809 17.8008 4.21887 17.797 8.95446C17.7806 13.5746 13.9925 17.3488 9.23555 17.6188L8.95519 17.6665C4.19501 17.5712 0.301009 14.1723 0.155372 9.18687L0.1521 8.91634C0.157009 4.18869 4.10665 0.358927 8.97701 0.361574ZM11.1954 9.75334H6.7521C6.92883 12.9547 8.09119 15.6589 8.89956 15.8241L8.97701 15.8315C9.75101 15.8299 11.1708 13.2183 11.1763 10.053L11.1954 9.75334ZM16.0396 9.75334H12.9065C12.8028 11.9202 12.3032 13.9346 11.5543 15.4588C13.9052 14.4746 15.5961 12.4454 15.9997 10.0265L16.0396 9.75334ZM5.04155 9.75334H1.91065C2.62901 12.2813 3.94683 14.4355 6.38937 15.4429C5.68901 14.0267 5.20955 12.2665 5.0661 10.1838L5.04155 9.75334ZM6.39374 2.48663L6.26283 2.53746C3.8841 3.49146 2.56901 5.61598 1.91065 8.09628H5.04155C5.1381 6.07393 5.57774 4.18446 6.24701 2.78099L6.39374 2.48663ZM8.96883 2.0181C8.16974 2.02181 6.9381 5.06646 6.7521 8.09628H11.1965C11.0192 4.88804 10.1945 2.19175 9.04301 2.02604L8.96883 2.0181ZM11.5646 2.49669L11.5908 2.55175C12.3228 3.97481 12.8077 5.95904 12.9076 8.09628H16.0363C15.7145 5.57522 13.9985 3.42581 11.563 2.49669H11.5646Z" fill="white"/>
</g>
<defs>
<clipPath id="clip0_21_1600">
<rect width="18" height="18" fill="white"/>
</clipPath>
</defs>
</svg>
