<svg width="18" height="18" viewBox="0 0 18 18" fill="none" xmlns="http://www.w3.org/2000/svg">
<g clip-path="url(#clip0_133_455)">
<path fill-rule="evenodd" clip-rule="evenodd" d="M8.97713 0.361574C13.8551 0.374809 17.8009 4.21887 17.7971 8.95446C17.7808 13.5746 13.9926 17.3488 9.23568 17.6188L8.95531 17.6665C4.19513 17.5712 0.301131 14.1723 0.155494 9.18687L0.152222 8.91634C0.157131 4.18869 4.10677 0.358927 8.97713 0.361574ZM11.1955 9.75334H6.75222C6.92895 12.9547 8.09131 15.6589 8.89968 15.8241L8.97713 15.8315C9.75113 15.8299 11.1709 13.2183 11.1764 10.053L11.1955 9.75334ZM16.0397 9.75334H12.9066C12.8029 11.9202 12.3033 13.9346 11.5544 15.4588C13.9053 14.4746 15.5962 12.4454 15.9999 10.0265L16.0397 9.75334ZM5.04168 9.75334H1.91077C2.62913 12.2813 3.94695 14.4355 6.38949 15.4429C5.68913 14.0267 5.20968 12.2665 5.06622 10.1838L5.04168 9.75334ZM6.39386 2.48663L6.26295 2.53746C3.88422 3.49146 2.56913 5.61598 1.91077 8.09628H5.04168C5.13822 6.07393 5.57786 4.18446 6.24713 2.78099L6.39386 2.48663ZM8.96895 2.0181C8.16986 2.02181 6.93822 5.06646 6.75222 8.09628H11.1966C11.0193 4.88804 10.1946 2.19175 9.04313 2.02604L8.96895 2.0181ZM11.5648 2.49669L11.591 2.55175C12.3229 3.97481 12.8079 5.95904 12.9077 8.09628H16.0364C15.7146 5.57522 13.9986 3.42581 11.5631 2.49669H11.5648Z" fill="white"/>
</g>
<defs>
<clipPath id="clip0_133_455">
<rect width="18" height="18" fill="white"/>
</clipPath>
</defs>
</svg>
