<svg width="51" height="25" viewBox="0 0 51 25" fill="none" xmlns="http://www.w3.org/2000/svg">
<rect x="0.5" y="0.5" width="50" height="24" rx="12" stroke="#EFEFEF"/>
<path d="M12.4945 17.174C11.7502 17.174 11.1218 17.0483 10.6095 16.797C10.1068 16.536 9.68633 16.2363 9.348 15.898L10.1165 14.825C10.3968 15.086 10.711 15.318 11.059 15.521C11.407 15.7143 11.813 15.811 12.277 15.811C12.7893 15.811 13.2147 15.6563 13.553 15.347C13.8913 15.0377 14.0605 14.6027 14.0605 14.042C14.0605 13.491 13.9058 13.0657 13.5965 12.766C13.2872 12.4663 12.8763 12.3165 12.364 12.3165C12.0643 12.3165 11.813 12.36 11.61 12.447C11.407 12.5243 11.1653 12.6548 10.885 12.8385L10.0875 12.331L10.363 7.778H15.293V9.1845H11.813L11.6245 11.4175C11.8178 11.3208 12.0063 11.2483 12.19 11.2C12.3833 11.142 12.6008 11.113 12.8425 11.113C13.3742 11.113 13.8575 11.2145 14.2925 11.4175C14.7275 11.6205 15.0755 11.9347 15.3365 12.36C15.6072 12.7853 15.7425 13.3315 15.7425 13.9985C15.7425 14.6655 15.5878 15.2358 15.2785 15.7095C14.9788 16.1832 14.5825 16.5457 14.0895 16.797C13.5965 17.0483 13.0648 17.174 12.4945 17.174ZM18.4351 17.174C18.1354 17.174 17.8792 17.0677 17.6666 16.855C17.4539 16.6423 17.3476 16.3717 17.3476 16.043C17.3476 15.7143 17.4539 15.4437 17.6666 15.231C17.8792 15.0183 18.1354 14.912 18.4351 14.912C18.7444 14.912 19.0006 15.0183 19.2036 15.231C19.4066 15.4437 19.5081 15.7143 19.5081 16.043C19.5081 16.3717 19.4066 16.6423 19.2036 16.855C19.0006 17.0677 18.7444 17.174 18.4351 17.174ZM24.1392 17.174C23.1822 17.174 22.4186 16.7583 21.8482 15.927C21.2876 15.0957 21.0072 13.9018 21.0072 12.3455C21.0072 10.7892 21.2876 9.60983 21.8482 8.8075C22.4186 8.00517 23.1822 7.604 24.1392 7.604C25.0962 7.604 25.8551 8.00517 26.4157 8.8075C26.9861 9.60983 27.2712 10.7892 27.2712 12.3455C27.2712 13.9018 26.9861 15.0957 26.4157 15.927C25.8551 16.7583 25.0962 17.174 24.1392 17.174ZM24.1392 15.869C24.4389 15.869 24.7047 15.7578 24.9367 15.5355C25.1687 15.3035 25.3476 14.9313 25.4732 14.419C25.6086 13.9067 25.6762 13.2155 25.6762 12.3455C25.6762 11.4755 25.6086 10.7892 25.4732 10.2865C25.3476 9.78383 25.1687 9.431 24.9367 9.228C24.7047 9.01533 24.4389 8.909 24.1392 8.909C23.8492 8.909 23.5882 9.01533 23.3562 9.228C23.1242 9.431 22.9406 9.78383 22.8052 10.2865C22.6699 10.7892 22.6022 11.4755 22.6022 12.3455C22.6022 13.2155 22.6699 13.9067 22.8052 14.419C22.9406 14.9313 23.1242 15.3035 23.3562 15.5355C23.5882 15.7578 23.8492 15.869 24.1392 15.869Z" fill="black"/>
<g clip-path="url(#clip0_2_483)">
<path fill-rule="evenodd" clip-rule="evenodd" d="M41.8834 11.2425C41.846 11.1221 41.747 11.0341 41.6282 11.0156L38.2853 10.7805L36.7904 7.31725C36.7371 7.20436 36.6271 7.13257 36.566 7.13257C36.3867 7.13257 36.2767 7.20436 36.2234 7.31725L34.7285 10.7805L31.3856 11.0156C31.2662 11.0341 31.1678 11.1221 31.1304 11.2425C31.093 11.3618 31.1243 11.4944 31.2101 11.5829L33.629 14.0637L33.0581 17.5664C33.0383 17.6908 33.0867 17.8165 33.1841 17.8911C33.5905 17.9334 33.304 17.9543 33.3694 17.9543C33.42 17.9543 33.4706 17.9421 33.5168 17.916L36.566 16.2626L39.497 17.916C39.6031 17.9751 39.7324 17.9653 40.097 17.8911C39.9265 17.8165 39.9755 17.6908 39.9551 17.5664L39.3842 14.0637L41.8031 11.5829C41.8895 11.4944 41.9203 11.3618 41.8834 11.2425Z" fill="#FFBE00"/>
</g>
<defs>
<clipPath id="clip0_2_483">
<rect width="11" height="11" fill="white" transform="translate(31 7)"/>
</clipPath>
</defs>
</svg>
