<?xml version="1.0" encoding="UTF-8"?>
<svg id="_Слой_2" data-name="Слой 2" xmlns="http://www.w3.org/2000/svg" viewBox="0 0 78.91 74.51">
  <defs>
    <style>
      .cls-1 {
        fill-rule: evenodd;
        isolation: isolate;
        opacity: .3;
      }

      .cls-2 {
        fill: none;
        stroke: #a5a5a5;
      }
    </style>
  </defs>
  <g id="_Слой_1-2" data-name="Слой 1">
    <g>
      <path class="cls-1" d="M39.45,18.21c5.06,0,5.69,.02,7.67,.11,1.98,.09,3.33,.41,4.52,.89,1.23,.48,2.26,1.14,3.3,2.2,.95,.95,1.68,2.1,2.15,3.37,.46,1.21,.77,2.6,.87,4.62,.09,2.03,.11,2.68,.11,7.85s-.02,5.82-.11,7.85c-.09,2.03-.41,3.41-.87,4.62-.47,1.27-1.2,2.42-2.15,3.37-.93,.97-2.06,1.72-3.3,2.2-1.18,.47-2.54,.79-4.52,.88-1.98,.09-2.62,.12-7.67,.12s-5.69-.02-7.67-.12c-1.98-.09-3.33-.41-4.52-.88-1.24-.48-2.37-1.23-3.3-2.2-.95-.95-1.68-2.1-2.15-3.37-.46-1.21-.77-2.6-.87-4.62-.09-2.03-.11-2.67-.11-7.85s.02-5.82,.11-7.85c.09-2.03,.4-3.41,.87-4.62,.47-1.27,1.2-2.42,2.15-3.37,.93-.97,2.06-1.72,3.3-2.2,1.19-.47,2.54-.79,4.52-.89,1.98-.09,2.62-.11,7.67-.11Zm0,9.52c-5.14,0-9.31,4.26-9.31,9.52s4.17,9.52,9.31,9.52,9.31-4.26,9.31-9.52-4.17-9.52-9.31-9.52Zm12.1-.48c0-1.32-1.04-2.38-2.33-2.38s-2.33,1.06-2.33,2.38,1.04,2.38,2.33,2.38,2.33-1.07,2.33-2.38Zm-12.1,4.28c3.08,0,5.58,2.56,5.58,5.71s-2.5,5.71-5.58,5.71-5.58-2.56-5.58-5.71,2.5-5.71,5.58-5.71Z"/>
      <path class="cls-2" d="M31.39,.5h16.13c17.06,0,30.89,13.83,30.89,30.89v11.72c0,17.06-13.83,30.89-30.89,30.89H31.39C14.33,74.01,.5,60.18,.5,43.11v-11.72C.5,14.33,14.33,.5,31.39,.5Z"/>
    </g>
  </g>
</svg>