<svg width="18" height="18" viewBox="0 0 18 18" fill="none" xmlns="http://www.w3.org/2000/svg">
<g clip-path="url(#clip0_133_253)">
<path fill-rule="evenodd" clip-rule="evenodd" d="M17.4286 12.8638C17.3151 13.912 17.2615 14.7612 16.5522 15.4863C16.2332 15.9256 15.8469 16.312 15.408 16.7675C14.6825 17.1575 13.8332 17.3933 12.7846 17.5073C11.7572 17.6181 10.4626 17.6181 9.18 17.6181H8.72908C7.07723 17.6181 5.78215 17.6181 4.75477 17.5073C3.83538 17.3933 2.85692 17.1575 2.13185 16.7675C1.69246 16.312 1.30662 15.9256 0.987692 15.4863C0.460615 14.7612 0.224769 13.912 0.111231 12.8638C0 11.8364 0 10.5413 0 8.89041V9.16595C0 7.15687 0 5.86226 0.111231 4.83487C0.224769 3.78626 0.460615 2.93749 0.987692 2.21195C1.30662 1.77349 1.69246 1.61518 2.13185 1.06826C2.85692 0.541643 3.83538 0.305336 4.75477 0.192259C5.78215 0.0805664 7.07723 0.0805664 8.72908 0.0805664H9.18C10.4626 0.0805664 11.7572 0.0805664 12.7846 0.192259C13.8332 0.305336 14.6825 0.541643 15.408 1.06826C15.8469 1.61518 16.2332 1.77349 16.5522 2.21195C17.2615 2.93749 17.3151 3.78626 17.4286 4.83487C17.6769 5.86226 17.6769 7.15687 17.6769 9.16595V8.89041C17.6769 10.5413 17.6769 11.8364 17.4286 12.8638ZM8.81539 3.50887C5.82 3.50887 3.42923 5.9001 3.42923 8.84934C3.42923 11.7981 5.82 14.1893 8.81539 14.1893C11.7194 14.1893 14.1106 11.7981 14.1106 8.84934C14.1106 5.9001 11.7194 3.50887 8.81539 3.50887ZM14.4055 2.00887C13.74 2.00887 13.2 2.54887 13.2 3.21395C13.2 3.88041 13.74 4.41903 14.4055 4.41903C15.0715 4.41903 15.6115 3.88041 15.6115 3.21395C15.6115 2.54887 15.0715 2.00887 14.4055 2.00887ZM8.81539 11.416C7.35231 11.416 6.20308 10.2667 6.20308 8.84934C6.20308 7.43195 7.35231 6.28318 8.81539 6.28318C10.4908 6.28318 11.3368 7.43195 11.3368 8.84934C11.3368 10.2667 10.4908 11.416 8.81539 11.416Z" fill="white"/>
</g>
<defs>
<clipPath id="clip0_133_253">
<rect width="17.5385" height="18" fill="white"/>
</clipPath>
</defs>
</svg>
