<svg width="40" height="41" viewBox="0 0 40 41" fill="none" xmlns="http://www.w3.org/2000/svg">
<rect width="40" height="41" rx="20" fill="#004D41"/>
<path d="M13.743 28V14.266H16.494L18.93 20.986C19.084 21.42 19.231 21.868 19.371 22.33C19.525 22.778 19.672 23.226 19.812 23.674H19.896C20.05 23.226 20.197 22.778 20.337 22.33C20.477 21.868 20.617 21.42 20.757 20.986L23.13 14.266H25.902V28H23.655V21.721C23.655 21.287 23.669 20.818 23.697 20.314C23.739 19.796 23.781 19.278 23.823 18.76C23.879 18.242 23.928 17.773 23.97 17.353H23.886L22.773 20.545L20.526 26.719H19.077L16.809 20.545L15.717 17.353H15.633C15.675 17.773 15.717 18.242 15.759 18.76C15.815 19.278 15.857 19.796 15.885 20.314C15.927 20.818 15.948 21.287 15.948 21.721V28H13.743Z" fill="white"/>
</svg>
