<svg width="22" height="15" viewBox="0 0 22 15" fill="none" xmlns="http://www.w3.org/2000/svg">
<path fill-rule="evenodd" clip-rule="evenodd" d="M16.1552 1.89559C16.1541 1.19432 15.6845 0.75647 15.1058 0.75647H1.47711C0.898878 1.16838 0.422272 1.17906 0.41249 1.92102C0.403251 2.57194 0.864641 2.7062 1.44287 2.71484C1.45428 2.71484 1.4657 2.71484 1.47711 2.71484H15.1058C15.6845 2.71484 16.1541 2.72959 16.1552 1.89559ZM1.47711 6.63108H20.3473C21.0283 6.62193 21.4022 7.05316 21.4114 7.59374C21.4212 8.13482 21.3707 8.5803 20.474 8.58894C20.3696 8.58894 20.3587 8.58894 20.3473 8.58894H1.47711C0.898878 8.59759 0.422272 8.16635 0.41249 7.62578C0.403251 7.0852 0.864641 6.63972 1.44287 6.63108C1.45428 6.63057 1.4657 6.63057 1.47711 6.63108ZM1.47711 12.5052H10.9109C11.4891 12.5052 11.9581 13.2817 11.9586 13.4841C11.9586 14.0247 11.4902 14.7514 10.9114 14.7565H1.47711C0.898878 14.7565 0.42988 14.0252 0.429337 13.4846C0.429337 13.2919 0.898334 12.5057 1.47711 12.5052Z" fill="#F9F9F9"/>
</svg>
