<svg width="26" height="26" viewBox="0 0 26 26" fill="none" xmlns="http://www.w3.org/2000/svg">
<g opacity="0.8">
<path d="M16.1891 4.0625C17.5672 4.43236 18.8239 5.15821 19.8328 6.16719C20.8418 7.17617 21.5677 8.43279 21.9375 9.81094" stroke="white" stroke-width="2" stroke-linecap="round" stroke-linejoin="round"/>
<path d="M15.3461 7.20081C16.1749 7.42094 16.9309 7.85627 17.5373 8.46269C18.1437 9.06911 18.5791 9.82506 18.7992 10.6539" stroke="white" stroke-width="2" stroke-linecap="round" stroke-linejoin="round"/>
<path d="M9.39453 12.675C10.2306 14.4015 11.6268 15.7941 13.3555 16.6258C13.483 16.6861 13.624 16.7123 13.7647 16.7016C13.9054 16.6909 14.0409 16.6438 14.1578 16.5648L16.6969 14.8687C16.8091 14.7926 16.9387 14.7462 17.0737 14.7338C17.2086 14.7213 17.3446 14.7433 17.4688 14.7976L22.2219 16.839C22.3843 16.9066 22.52 17.0258 22.6081 17.1781C22.6962 17.3304 22.7318 17.5075 22.7094 17.682C22.5587 18.8578 21.9848 19.9385 21.095 20.7217C20.2052 21.505 19.0604 21.9372 17.875 21.9375C14.2117 21.9375 10.6984 20.4822 8.10809 17.8919C5.51774 15.3015 4.0625 11.7883 4.0625 8.12497C4.06277 6.93953 4.49497 5.7948 5.27823 4.90499C6.06149 4.01517 7.14214 3.44125 8.31797 3.2906C8.49249 3.26818 8.66955 3.30375 8.82187 3.39184C8.97419 3.47993 9.09332 3.61565 9.16094 3.7781L11.2023 8.54138C11.2554 8.66361 11.2776 8.79702 11.267 8.92985C11.2564 9.06268 11.2132 9.19086 11.1414 9.3031L9.44531 11.8828C9.3698 11.9995 9.32548 12.1336 9.31659 12.2723C9.3077 12.411 9.33454 12.5496 9.39453 12.675Z" stroke="white" stroke-width="2" stroke-linecap="round" stroke-linejoin="round"/>
</g>
</svg>
