<svg width="43" height="41" viewBox="0 0 43 41" fill="none" xmlns="http://www.w3.org/2000/svg">
<rect x="1.03442" y="0.5" width="40.784" height="39.6674" rx="15.5" stroke="#F6BA5B" stroke-opacity="0.23"/>
<path opacity="0.988" fill-rule="evenodd" clip-rule="evenodd" d="M26.7914 21.7528C25.7579 21.1145 24.7594 21.1124 24.1424 21.7486C24.1409 21.7502 24.1394 21.7517 24.1384 21.7528L23.8214 22.6398C22.5174 21.9783 21.7224 21.3173 21.0044 20.5714C20.2844 19.8292 19.6459 19.0057 19.1014 18.1166L20.1964 17.3273C20.4809 16.6911 20.4824 15.6571 20.2364 15.0183C20.2264 15.0167 20.2114 15.0157 20.1964 15.0142L18.8164 13.479C18.0839 13.1707 17.6834 12.9979 17.2664 13C17.0264 12.9995 16.4434 13.1712 16.1464 13.479L15.4314 14.214C14.7409 14.9826 14.4239 16.0336 14.5689 17.0723C14.7374 19.1128 16.0309 21.5681 18.0234 23.6361C20.0164 25.7045 22.4139 27.0385 24.3854 27.6674C24.5324 27.2423 24.6799 27.2423 24.8764 27.6674C25.6844 27.2717 26.5204 26.95 27.1459 26.3417L28.1164 25.6016C28.1529 25.2943 28.3194 24.8769 28.3184 24.4419C28.3204 24.0095 28.1539 23.8657 28.1164 23.2931L26.7914 21.7528Z" fill="#FFB644"/>
</svg>
