<svg width="16" height="22" viewBox="0 0 16 22" fill="none" xmlns="http://www.w3.org/2000/svg">
<path fill-rule="evenodd" clip-rule="evenodd" d="M14.8975 18.7138L12.6849 20.6645C12.0941 21.1787 11.2884 21.3655 10.5335 21.164L10.3809 21.1226C9.71523 20.9097 9.23981 20.6384 8.45181 20.3115C6.14152 19.0055 4.00152 17.0446 2.42495 14.0246C0.847806 11.2804 -0.0207657 8.30404 0.000377128 5.64271C0.0272343 4.94234 0.116377 4.24536 0.26552 3.56031C0.432377 2.7328 1.02552 2.05739 1.82209 1.78723L4.61523 0.835418C5.39638 0.570931 6.68552 0.992634 6.50666 1.77701C6.52381 1.82809 6.53809 1.87974 6.54952 1.93196L7.48266 6.23355C7.64781 6.95323 7.26209 7.95215 6.57581 7.95555L5.58095 8.3432C5.47352 8.3835 5.41352 8.49815 5.44038 8.60996C5.71066 9.64634 6.12381 10.6396 6.66781 11.5613C7.19181 12.4955 7.84266 13.5143 8.60266 14.1034C8.68552 14.1829 8.81466 14.188 8.90266 14.1159L9.73638 13.4417C10.3118 12.9808 11.1369 13.012 11.6764 13.5154L14.9227 16.4884C15.2358 17.1013 15.4141 17.1785 15.4124 17.6036C15.4061 18.0304 15.2187 18.434 14.8975 18.7138ZM14.0638 17.7393L14.0804 17.7217C14.1667 17.6275 14.1604 17.4816 14.0672 17.3948L11.3027 14.4247C10.7364 14.3492 10.6107 14.3441 10.5221 14.4139L9.68838 15.5519C9.51409 15.5559 8.2518 15.5082 7.71638 14.9769C6.88152 14.1449 6.16495 13.2027 5.58666 12.1748C4.98895 11.1583 5.01695 10.0646 4.23352 8.92382C4.04152 8.1928 4.42381 7.43282 5.12381 7.15471L6.11866 6.7665C6.48552 6.72507 6.28209 6.61326 6.25752 6.50258L5.31638 2.19758C5.30266 2.13401 5.26266 2.07896 5.20666 2.04604L5.14838 2.47512C5.58838 2.35593 5.13123 2.36728 5.01695 2.52053L2.51981 2.98082C1.85695 3.10739 1.58209 3.42182 1.50666 3.8072C1.37523 4.41393 1.29581 5.03144 1.26838 5.6518C1.25066 8.09234 2.05923 10.8291 3.52323 13.8605C4.98609 15.9418 6.95638 18.0089 9.25123 19.2133C9.62152 19.5004 10.2512 19.7388 10.9598 19.9273C11.1558 20.0527 11.5649 19.9721 11.8609 19.715L14.0649 17.7586L14.0638 17.7393Z" fill="#F9F9F9"/>
</svg>
