<svg width="97" height="17" viewBox="0 0 97 17" fill="none" xmlns="http://www.w3.org/2000/svg">
<path fill-rule="evenodd" clip-rule="evenodd" d="M15.9769 6.41083C15.9214 5.89761 15.7744 5.76762 15.5968 5.74007L10.9678 4.98523L8.39201 0.568305C8.71612 0.105832 8.14882 0 7.96989 0C7.79096 0 7.62729 0.105832 7.54822 0.568305L5.32108 4.98523L0.342474 5.74007C0.165393 5.76762 0.0183655 5.89761 0.125631 6.41083C-0.0925989 6.2528 0.0285372 6.44804 0.08217 6.57948L4.04637 10.2469L2.83409 15.4259C2.80403 15.6105 2.87662 15.7961 3.02134 15.9067C3.10364 15.9691 3.36672 16 3.29783 16C3.37319 16 3.44809 15.9816 3.51698 15.943L7.96989 13.4977L12.4228 15.943C12.5814 16.0304 12.7733 16.0159 13.1639 15.9067C13.0632 15.7961 13.1357 15.6105 13.1057 15.4259L12.255 10.2469L15.8576 6.57948C15.9861 6.44804 16.0324 6.2528 15.9769 6.41083Z" fill="#FFBE00"/>
<path fill-rule="evenodd" clip-rule="evenodd" d="M36.9754 6.8115C36.9165 6.26621 36.7603 6.12809 36.5716 6.09883L31.6533 5.29681L28.9165 0.603824C29.2609 0.112447 28.6581 0 28.468 0C28.2779 0 28.104 0.112447 28.02 0.603824L25.6536 5.29681L20.3639 6.09883C20.1757 6.12809 20.0195 6.26621 20.1335 6.8115C19.9016 6.6436 20.0303 6.85104 20.0873 6.9907L24.2993 10.8873L23.0112 16.39C22.9793 16.5862 23.0564 16.7833 23.2102 16.9009C23.2976 16.9671 23.5771 17 23.5039 17C23.584 17 23.6636 16.9805 23.7368 16.9394L28.468 14.3413L33.1992 16.9394C33.3677 17.0323 33.5716 17.0169 33.9867 16.9009C33.8796 16.7833 33.9567 16.5862 33.9248 16.39L33.0209 10.8873L36.8487 6.9907C36.9853 6.85104 37.0344 6.6436 36.9754 6.8115Z" fill="#FFBE00"/>
<path fill-rule="evenodd" clip-rule="evenodd" d="M56.9769 6.8115C56.9214 6.26621 56.7744 6.12809 56.5968 6.09883L51.9678 5.29681L49.392 0.603824C49.7161 0.112447 49.1488 0 48.9699 0C48.791 0 48.6273 0.112447 48.5482 0.603824L46.3211 5.29681L41.3425 6.09883C41.1654 6.12809 41.0184 6.26621 41.1256 6.8115C40.9074 6.6436 41.0285 6.85104 41.0822 6.9907L45.0464 10.8873L43.8341 16.39C43.804 16.5862 43.8766 16.7833 44.0213 16.9009C44.1036 16.9671 44.3667 17 44.2978 17C44.3732 17 44.4481 16.9805 44.517 16.9394L48.9699 14.3413L53.4228 16.9394C53.5814 17.0323 53.7733 17.0169 54.1639 16.9009C54.0632 16.7833 54.1357 16.5862 54.1057 16.39L53.255 10.8873L56.8576 6.9907C56.9861 6.85104 57.0324 6.6436 56.9769 6.8115Z" fill="#FFBE00"/>
<path fill-rule="evenodd" clip-rule="evenodd" d="M76.9769 6.8115C76.9214 6.26621 76.7744 6.12809 76.5968 6.09883L71.9678 5.29681L69.392 0.603824C69.7161 0.112447 69.1488 0 68.9699 0C68.791 0 68.6273 0.112447 68.5482 0.603824L66.3211 5.29681L61.3425 6.09883C61.1654 6.12809 61.0184 6.26621 61.1256 6.8115C60.9074 6.6436 61.0285 6.85104 61.0822 6.9907L65.0464 10.8873L63.8341 16.39C63.804 16.5862 63.8766 16.7833 64.0213 16.9009C64.1036 16.9671 64.3667 17 64.2978 17C64.3732 17 64.4481 16.9805 64.517 16.9394L68.9699 14.3413L73.4228 16.9394C73.5814 17.0323 73.7733 17.0169 74.1639 16.9009C74.0632 16.7833 74.1357 16.5862 74.1057 16.39L73.255 10.8873L76.8576 6.9907C76.9861 6.85104 77.0324 6.6436 76.9769 6.8115Z" fill="#FFBE00"/>
<path fill-rule="evenodd" clip-rule="evenodd" d="M96.9769 6.41083C96.9214 5.89761 96.7744 5.76762 96.5968 5.74007L91.9678 4.98523L89.392 0.568305C89.7161 0.105832 89.1488 0 88.9699 0C88.791 0 88.6273 0.105832 88.5482 0.568305L86.3211 4.98523L81.3425 5.74007C81.1654 5.76762 81.0184 5.89761 81.1256 6.41083C80.9074 6.2528 81.0285 6.44804 81.0822 6.57948L85.0464 10.2469L83.8341 15.4259C83.804 15.6105 83.8766 15.7961 84.0213 15.9067C84.1036 15.9691 84.3667 16 84.2978 16C84.3732 16 84.4481 15.9816 84.517 15.943L88.9699 13.4977L93.4228 15.943C93.5814 16.0304 93.7733 16.0159 94.1639 15.9067C94.0632 15.7961 94.1357 15.6105 94.1057 15.4259L93.255 10.2469L96.8576 6.57948C96.9861 6.44804 97.0324 6.2528 96.9769 6.41083Z" fill="#FFBE00"/>
</svg>
