<svg width="59" height="10" viewBox="0 0 59 10" fill="none" xmlns="http://www.w3.org/2000/svg">
<g clip-path="url(#clip0_133_393)">
<path fill-rule="evenodd" clip-rule="evenodd" d="M10.394 3.85684C10.36 3.74737 10.27 3.66737 10.162 3.65053L7.12302 3.43684L5.76402 0.288421C5.71552 0.185789 5.61552 0.120526 5.56002 0.120526C5.39702 0.120526 5.29702 0.185789 5.24852 0.288421L3.88952 3.43684L0.850515 3.65053C0.742015 3.66737 0.652516 3.74737 0.618515 3.85684C0.584515 3.96526 0.613015 4.08579 0.691015 4.16632L2.89002 6.42158L2.37102 9.60579C2.35302 9.71895 2.39702 9.83316 2.48552 9.90105C2.85502 9.93947 2.59452 9.95842 2.65402 9.95842C2.70002 9.95842 2.74602 9.94737 2.78802 9.92368L5.56002 8.42053L8.22452 9.92368C8.32102 9.97737 8.43852 9.96842 8.77002 9.90105C8.61502 9.83316 8.65952 9.71895 8.64102 9.60579L8.12202 6.42158L10.321 4.16632C10.3995 4.08579 10.4275 3.96526 10.394 3.85684Z" fill="#FF8A01"/>
</g>
<g clip-path="url(#clip1_133_393)">
<path fill-rule="evenodd" clip-rule="evenodd" d="M22.394 3.85684C22.36 3.74737 22.27 3.66737 22.162 3.65053L19.123 3.43684L17.764 0.288421C17.7155 0.185789 17.6155 0.120526 17.56 0.120526C17.397 0.120526 17.297 0.185789 17.2485 0.288421L15.8895 3.43684L12.8505 3.65053C12.742 3.66737 12.6525 3.74737 12.6185 3.85684C12.5845 3.96526 12.613 4.08579 12.691 4.16632L14.89 6.42158L14.371 9.60579C14.353 9.71895 14.397 9.83316 14.4855 9.90105C14.855 9.93947 14.5945 9.95842 14.654 9.95842C14.7 9.95842 14.746 9.94737 14.788 9.92368L17.56 8.42053L20.2245 9.92368C20.321 9.97737 20.4385 9.96842 20.77 9.90105C20.615 9.83316 20.6595 9.71895 20.641 9.60579L20.122 6.42158L22.321 4.16632C22.3995 4.08579 22.4275 3.96526 22.394 3.85684Z" fill="#FF8A01"/>
</g>
<g clip-path="url(#clip2_133_393)">
<path fill-rule="evenodd" clip-rule="evenodd" d="M34.394 3.85684C34.36 3.74737 34.27 3.66737 34.162 3.65053L31.123 3.43684L29.764 0.288421C29.7155 0.185789 29.6155 0.120526 29.56 0.120526C29.397 0.120526 29.297 0.185789 29.2485 0.288421L27.8895 3.43684L24.8505 3.65053C24.742 3.66737 24.6525 3.74737 24.6185 3.85684C24.5845 3.96526 24.613 4.08579 24.691 4.16632L26.89 6.42158L26.371 9.60579C26.353 9.71895 26.397 9.83316 26.4855 9.90105C26.855 9.93947 26.5945 9.95842 26.654 9.95842C26.7 9.95842 26.746 9.94737 26.788 9.92368L29.56 8.42053L32.2245 9.92368C32.321 9.97737 32.4385 9.96842 32.77 9.90105C32.615 9.83316 32.6595 9.71895 32.641 9.60579L32.122 6.42158L34.321 4.16632C34.3995 4.08579 34.4275 3.96526 34.394 3.85684Z" fill="#FF8A01"/>
</g>
<g clip-path="url(#clip3_133_393)">
<path fill-rule="evenodd" clip-rule="evenodd" d="M46.394 3.85684C46.36 3.74737 46.27 3.66737 46.162 3.65053L43.123 3.43684L41.764 0.288421C41.7155 0.185789 41.6155 0.120526 41.56 0.120526C41.397 0.120526 41.297 0.185789 41.2485 0.288421L39.8895 3.43684L36.8505 3.65053C36.742 3.66737 36.6525 3.74737 36.6185 3.85684C36.5845 3.96526 36.613 4.08579 36.691 4.16632L38.89 6.42158L38.371 9.60579C38.353 9.71895 38.397 9.83316 38.4855 9.90105C38.855 9.93947 38.5945 9.95842 38.654 9.95842C38.7 9.95842 38.746 9.94737 38.788 9.92368L41.56 8.42053L44.2245 9.92368C44.321 9.97737 44.4385 9.96842 44.77 9.90105C44.615 9.83316 44.6595 9.71895 44.641 9.60579L44.122 6.42158L46.321 4.16632C46.3995 4.08579 46.4275 3.96526 46.394 3.85684Z" fill="#FF8A01"/>
</g>
<g clip-path="url(#clip4_133_393)">
<path fill-rule="evenodd" clip-rule="evenodd" d="M58.394 3.85684C58.36 3.74737 58.27 3.66737 58.162 3.65053L55.123 3.43684L53.764 0.288421C53.7155 0.185789 53.6155 0.120526 53.56 0.120526C53.397 0.120526 53.297 0.185789 53.2485 0.288421L51.8895 3.43684L48.8505 3.65053C48.742 3.66737 48.6525 3.74737 48.6185 3.85684C48.5845 3.96526 48.613 4.08579 48.691 4.16632L50.89 6.42158L50.371 9.60579C50.353 9.71895 50.397 9.83316 50.4855 9.90105C50.855 9.93947 50.5945 9.95842 50.654 9.95842C50.7 9.95842 50.746 9.94737 50.788 9.92368L53.56 8.42053L56.2245 9.92368C56.321 9.97737 56.4385 9.96842 56.77 9.90105C56.615 9.83316 56.6595 9.71895 56.641 9.60579L56.122 6.42158L58.321 4.16632C58.3995 4.08579 58.4275 3.96526 58.394 3.85684Z" fill="#FF8A01"/>
</g>
<defs>
<clipPath id="clip0_133_393">
<rect width="10" height="10" fill="white" transform="translate(0.5)"/>
</clipPath>
<clipPath id="clip1_133_393">
<rect width="10" height="10" fill="white" transform="translate(12.5)"/>
</clipPath>
<clipPath id="clip2_133_393">
<rect width="10" height="10" fill="white" transform="translate(24.5)"/>
</clipPath>
<clipPath id="clip3_133_393">
<rect width="10" height="10" fill="white" transform="translate(36.5)"/>
</clipPath>
<clipPath id="clip4_133_393">
<rect width="10" height="10" fill="white" transform="translate(48.5)"/>
</clipPath>
</defs>
</svg>
