<svg width="46" height="36" viewBox="0 0 46 36" fill="none" xmlns="http://www.w3.org/2000/svg">
<rect x="0.793823" y="1.25659" width="44.4124" height="33.487" rx="14.5" stroke="white" stroke-opacity="0.2"/>
<path fill-rule="evenodd" clip-rule="evenodd" d="M30.1913 25.7139L27.9788 27.6646C27.3879 28.1789 26.5822 28.3656 25.8273 28.1641L25.6748 28.1227C25.0091 27.9098 24.5336 27.6385 23.7456 27.3116C21.4353 26.0056 19.2953 24.0447 17.7188 21.0247C16.1416 18.2805 15.2731 15.3042 15.2942 12.6428C15.3211 11.9425 15.4102 11.2455 15.5593 10.5604C15.7262 9.73292 16.3193 9.05751 17.1159 8.78735L19.9091 7.83554C20.6902 7.57105 21.9793 7.99276 21.8005 8.77713C21.8176 8.82822 21.8319 8.87986 21.8433 8.93208L22.7765 13.2337C22.9416 13.9534 22.5559 14.9523 21.8696 14.9557L20.8748 15.3433C20.7673 15.3836 20.7073 15.4983 20.7342 15.6101C21.0045 16.6465 21.4176 17.6397 21.9616 18.5614C22.4856 19.4956 23.1365 20.5144 23.8965 21.1036C23.9793 21.183 24.1085 21.1881 24.1965 21.1161L25.0302 20.4418C25.6056 19.9809 26.4308 20.0121 26.9702 20.5156L30.2165 23.4885C30.5296 24.1015 30.7079 24.1786 30.7062 24.6038C30.6999 25.0306 30.5125 25.4341 30.1913 25.7139ZM29.3576 24.7394L29.3742 24.7218C29.4605 24.6276 29.4542 24.4817 29.3611 24.3949L26.5965 21.4248C26.0302 21.3493 25.9045 21.3442 25.8159 21.414L24.9822 22.552C24.8079 22.556 23.5456 22.5083 23.0102 21.9771C22.1753 21.145 21.4588 20.2028 20.8805 19.175C20.2828 18.1585 20.3108 17.0648 19.5273 15.9239C19.3353 15.1929 19.7176 14.4329 20.4176 14.1548L21.4125 13.7666C21.7793 13.7252 21.5759 13.6134 21.5513 13.5027L20.6102 9.1977C20.5965 9.13413 20.5565 9.07908 20.5005 9.04616L20.4422 9.47524C20.8822 9.35605 20.4251 9.3674 20.3108 9.52065L17.8136 9.98095C17.1508 10.1075 16.8759 10.4219 16.8005 10.8073C16.6691 11.4141 16.5896 12.0316 16.5622 12.6519C16.5445 15.0925 17.3531 17.8293 18.8171 20.8606C20.2799 22.9419 22.2502 25.009 24.5451 26.2134C24.9153 26.5006 25.5451 26.7389 26.2536 26.9274C26.4496 27.0528 26.8588 26.9722 27.1548 26.7151L29.3588 24.7587L29.3576 24.7394Z" fill="#F9F9F9"/>
</svg>
