<svg width="46" height="36" viewBox="0 0 46 36" fill="none" xmlns="http://www.w3.org/2000/svg">
<rect x="0.5" y="1.25647" width="44.4124" height="33.487" rx="14.5" stroke="white" stroke-opacity="0.2"/>
<path fill-rule="evenodd" clip-rule="evenodd" d="M29.8975 25.7138L27.6849 27.6645C27.0941 28.1787 26.2884 28.3655 25.5335 28.164L25.3809 28.1226C24.7152 27.9097 24.2398 27.6384 23.4518 27.3115C21.1415 26.0055 19.0015 24.0446 17.4249 21.0246C15.8478 18.2804 14.9792 15.304 15.0004 12.6427C15.0272 11.9423 15.1164 11.2454 15.2655 10.5603C15.4324 9.7328 16.0255 9.05739 16.8221 8.78723L19.6152 7.83542C20.3964 7.57093 21.6855 7.99263 21.5067 8.77701C21.5238 8.82809 21.5381 8.87974 21.5495 8.93196L22.4827 13.2336C22.6478 13.9532 22.2621 14.9521 21.5758 14.9556L20.5809 15.3432C20.4735 15.3835 20.4135 15.4981 20.4404 15.61C20.7107 16.6463 21.1238 17.6396 21.6678 18.5613C22.1918 19.4955 22.8427 20.5143 23.6027 21.1034C23.6855 21.1829 23.8147 21.188 23.9027 21.1159L24.7364 20.4417C25.3118 19.9808 26.1369 20.012 26.6764 20.5154L29.9227 23.4884C30.2358 24.1013 30.4141 24.1785 30.4124 24.6036C30.4061 25.0304 30.2187 25.434 29.8975 25.7138ZM29.0638 24.7393L29.0804 24.7217C29.1667 24.6275 29.1604 24.4816 29.0672 24.3948L26.3027 21.4247C25.7364 21.3492 25.6107 21.3441 25.5221 21.4139L24.6884 22.5519C24.5141 22.5559 23.2518 22.5082 22.7164 21.9769C21.8815 21.1449 21.1649 20.2027 20.5867 19.1748C19.9889 18.1583 20.0169 17.0646 19.2335 15.9238C19.0415 15.1928 19.4238 14.4328 20.1238 14.1547L21.1187 13.7665C21.4855 13.7251 21.2821 13.6133 21.2575 13.5026L20.3164 9.19758C20.3027 9.13401 20.2627 9.07896 20.2067 9.04604L20.1484 9.47512C20.5884 9.35593 20.1312 9.36728 20.0169 9.52053L17.5198 9.98082C16.8569 10.1074 16.5821 10.4218 16.5067 10.8072C16.3752 11.4139 16.2958 12.0314 16.2684 12.6518C16.2507 15.0923 17.0592 17.8291 18.5232 20.8605C19.9861 22.9418 21.9564 25.0089 24.2512 26.2133C24.6215 26.5004 25.2512 26.7388 25.9598 26.9273C26.1558 27.0527 26.5649 26.9721 26.8609 26.715L29.0649 24.7586L29.0638 24.7393Z" fill="#F9F9F9"/>
</svg>
