<?xml version="1.0" encoding="UTF-8"?>
<svg id="_Слой_2" data-name="Слой 2" xmlns="http://www.w3.org/2000/svg" viewBox="0 0 78.91 74.51">
  <defs>
    <style>
      .cls-1 {
        fill-rule: evenodd;
        isolation: isolate;
        opacity: .3;
      }

      .cls-2 {
        fill: none;
        stroke: #a5a5a5;
      }
    </style>
  </defs>
  <g id="_Слой_1-2" data-name="Слой 1">
    <g>
      <path class="cls-1" d="M52.09,22.81c-8.4-1.38-16.97-1.38-25.36,0-4.8,1-7.8,4.07-7.8,8.07v14.23c0,4.06,3,7.09,7.88,8.13,4.18,.7,8.4,1.05,12.64,1.06,4.25,0,8.49-.35,12.68-1.04,4.76-.89,7.84-4.07,7.84-8.13v-14.23c0-4.05-3.08-7.22-7.88-8.09Zm-5.95,16.14l-10.26,6.1c-.16,.1-.35,.15-.53,.14-.18,0-.35-.04-.51-.12-.33-.2-.52-.56-.51-.94v-12.2c0-.37,.2-.7,.51-.89,.33-.17,.72-.17,1.05,0l10.26,6.1c.49,.31,.63,.95,.32,1.43-.08,.13-.19,.24-.32,.32v.06Z"/>
      <path class="cls-2" d="M31.39,.5h16.13c17.06,0,30.89,13.83,30.89,30.89v11.72c0,17.06-13.83,30.89-30.89,30.89H31.39C14.33,74.01,.5,60.18,.5,43.11v-11.72C.5,14.33,14.33,.5,31.39,.5Z"/>
    </g>
  </g>
</svg>