<svg width="26" height="18" viewBox="0 0 26 18" fill="none" xmlns="http://www.w3.org/2000/svg">
<g clip-path="url(#clip0_133_249)">
<path fill-rule="evenodd" clip-rule="evenodd" d="M24.9866 1.63382C24.0484 0.718332 22.3154 0.0888672 19.0063 0.0888672H6.99368C3.60847 0.0888672 1.84652 1.00798 0.911442 1.73365C0 2.8731 0 4.5515 0 6.87488V11.3034C0 15.8038 1.35534 18.0889 6.99368 18.0889H19.0063C21.8762 18.0889 23.4663 17.6937 24.4949 16.7255C25.5503 15.7319 26 14.1104 26 11.3034V6.87488C26 4.42478 25.9296 2.73655 24.9866 1.63382ZM16.6923 9.70049L11.2373 12.5049C11.1154 12.5675 10.982 12.5985 10.8485 12.5985C10.6978 12.5985 10.9163 12.5587 10.4141 12.479C10.1635 12.3295 10.2701 12.0621 10.2701 11.7735V6.18231C10.2701 5.89473 10.163 5.62681 10.413 5.47733C10.6636 5.32785 10.9751 5.31751 11.2352 5.45044L16.6902 8.23674C16.9675 8.37846 17.1419 8.66035 17.1425 8.96809C17.143 9.27584 16.9691 9.55773 16.6923 9.70049Z" fill="white"/>
</g>
<defs>
<clipPath id="clip0_133_249">
<rect width="26" height="18" fill="white"/>
</clipPath>
</defs>
</svg>
