<svg width="117" height="32" viewBox="0 0 117 32" fill="none" xmlns="http://www.w3.org/2000/svg">
<rect width="117" height="32" rx="16" fill="#F32020"/>
<path fill-rule="evenodd" clip-rule="evenodd" d="M20.3225 9C19.454 9 18 10.1316 18 11.5364V20.4636C18 21.869 19.454 23 20.3225 23H29.3455C30.6324 23 31.668 21.869 31.668 20.4636V18.4193L34.9797 20.9556C35.7651 21.6652 37.001 21.3123 37 19.962L36.996 12.0374C36.9946 10.6861 35.7581 10.3337 34.9757 11.3781L31.668 13.5861V11.5364C31.668 10.1316 30.6324 9 29.345 9H20.3225Z" fill="white"/>
<path d="M49.0601 21V17.19L46.1051 11.16H47.4401L48.7151 13.935C48.8751 14.295 49.0301 14.65 49.1801 15C49.3401 15.35 49.5001 15.71 49.6601 16.08H49.7201C49.8901 15.71 50.0601 15.35 50.2301 15C50.4001 14.65 50.5601 14.295 50.7101 13.935L51.9701 11.16H53.2751L50.3201 17.19V21H49.0601ZM56.7037 21.18C56.1137 21.18 55.5587 21.03 55.0387 20.73C54.5287 20.43 54.1137 19.995 53.7937 19.425C53.4837 18.855 53.3287 18.17 53.3287 17.37C53.3287 16.55 53.4837 15.855 53.7937 15.285C54.1137 14.715 54.5287 14.28 55.0387 13.98C55.5587 13.68 56.1137 13.53 56.7037 13.53C57.3037 13.53 57.8587 13.68 58.3687 13.98C58.8787 14.28 59.2887 14.715 59.5987 15.285C59.9187 15.855 60.0787 16.55 60.0787 17.37C60.0787 18.17 59.9187 18.855 59.5987 19.425C59.2887 19.995 58.8787 20.43 58.3687 20.73C57.8587 21.03 57.3037 21.18 56.7037 21.18ZM56.7037 20.16C57.3337 20.16 57.8387 19.905 58.2187 19.395C58.6087 18.875 58.8037 18.2 58.8037 17.37C58.8037 16.53 58.6087 15.85 58.2187 15.33C57.8387 14.81 57.3337 14.55 56.7037 14.55C56.0837 14.55 55.5787 14.81 55.1887 15.33C54.7987 15.85 54.6037 16.53 54.6037 17.37C54.6037 18.2 54.7987 18.875 55.1887 19.395C55.5787 19.905 56.0837 20.16 56.7037 20.16ZM64.1286 21.18C63.3586 21.18 62.7936 20.94 62.4336 20.46C62.0736 19.97 61.8936 19.26 61.8936 18.33V13.71H63.1386V18.165C63.1386 18.845 63.2436 19.34 63.4536 19.65C63.6736 19.96 64.0236 20.115 64.5036 20.115C64.8836 20.115 65.2186 20.02 65.5086 19.83C65.8086 19.63 66.1286 19.315 66.4686 18.885V13.71H67.6986V21H66.6786L66.5736 19.86H66.5286C66.1886 20.26 65.8286 20.58 65.4486 20.82C65.0686 21.06 64.6286 21.18 64.1286 21.18ZM72.0248 21V12.21H69.0548V11.16H76.2548V12.21H73.2848V21H72.0248ZM79.3483 21.18C78.5783 21.18 78.0133 20.94 77.6533 20.46C77.2933 19.97 77.1133 19.26 77.1133 18.33V13.71H78.3583V18.165C78.3583 18.845 78.4633 19.34 78.6733 19.65C78.8933 19.96 79.2433 20.115 79.7233 20.115C80.1033 20.115 80.4383 20.02 80.7283 19.83C81.0283 19.63 81.3483 19.315 81.6883 18.885V13.71H82.9183V21H81.8983L81.7933 19.86H81.7483C81.4083 20.26 81.0483 20.58 80.6683 20.82C80.2883 21.06 79.8483 21.18 79.3483 21.18ZM88.6025 21.18C88.2625 21.18 87.9075 21.1 87.5375 20.94C87.1775 20.77 86.8375 20.54 86.5175 20.25H86.4725L86.3675 21H85.3775V10.32H86.6075V13.23L86.5775 14.55C86.9075 14.26 87.2675 14.02 87.6575 13.83C88.0575 13.63 88.4575 13.53 88.8575 13.53C89.8075 13.53 90.5275 13.865 91.0175 14.535C91.5075 15.205 91.7525 16.105 91.7525 17.235C91.7525 18.065 91.6025 18.775 91.3025 19.365C91.0125 19.955 90.6275 20.405 90.1475 20.715C89.6775 21.025 89.1625 21.18 88.6025 21.18ZM88.3925 20.145C88.9925 20.145 89.4875 19.89 89.8775 19.38C90.2775 18.86 90.4775 18.15 90.4775 17.25C90.4775 16.45 90.3275 15.805 90.0275 15.315C89.7375 14.815 89.2475 14.565 88.5575 14.565C88.2475 14.565 87.9325 14.65 87.6125 14.82C87.2925 14.99 86.9575 15.235 86.6075 15.555V19.38C86.9275 19.66 87.2425 19.86 87.5525 19.98C87.8725 20.09 88.1525 20.145 88.3925 20.145ZM96.6235 21.18C95.9735 21.18 95.3835 21.03 94.8535 20.73C94.3235 20.42 93.9035 19.98 93.5935 19.41C93.2835 18.84 93.1285 18.16 93.1285 17.37C93.1285 16.57 93.2835 15.885 93.5935 15.315C93.9135 14.745 94.3235 14.305 94.8235 13.995C95.3235 13.685 95.8485 13.53 96.3985 13.53C97.3285 13.53 98.0435 13.84 98.5435 14.46C99.0535 15.08 99.3085 15.91 99.3085 16.95C99.3085 17.08 99.3035 17.21 99.2935 17.34C99.2935 17.46 99.2835 17.565 99.2635 17.655H94.3435C94.3935 18.425 94.6335 19.04 95.0635 19.5C95.5035 19.96 96.0735 20.19 96.7735 20.19C97.1235 20.19 97.4435 20.14 97.7335 20.04C98.0335 19.93 98.3185 19.79 98.5885 19.62L99.0235 20.43C98.7135 20.63 98.3585 20.805 97.9585 20.955C97.5685 21.105 97.1235 21.18 96.6235 21.18ZM94.3285 16.77H98.2285C98.2285 16.03 98.0685 15.47 97.7485 15.09C97.4385 14.7 96.9985 14.505 96.4285 14.505C95.9185 14.505 95.4585 14.705 95.0485 15.105C94.6485 15.495 94.4085 16.05 94.3285 16.77Z" fill="white"/>
</svg>
